<?xml version="1.0" encoding="utf-8"?>
<!-- Generator: Adobe Illustrator 27.5.0, SVG Export Plug-In . SVG Version: 6.00 Build 0)  -->
<svg version="1.1" id="apple" xmlns="http://www.w3.org/2000/svg" xmlns:xlink="http://www.w3.org/1999/xlink" x="0px" y="0px"
	 viewBox="0 0 618.7 754.2" style="enable-background:new 0 0 618.7 754.2;" xml:space="preserve">
<style type="text/css">
	.st0{fill:#49AF20;stroke:#000000;stroke-width:21.33;stroke-miterlimit:53.33;}
	.st1{fill:#00FF00;}
	.st2{fill:none;stroke:#000000;stroke-width:21.33;stroke-linecap:round;stroke-linejoin:round;}
	.st3{fill:#FFFFFF;}
	#apple:hover{
		transform: scale(1.01);
	}
	#apple:hover #apple-body{
		fill: red;
	}
</style>
<script>
const apple = document.querySelector("#apple");

function logId() {
	console.log(this.id)
}

apple.addEventListener("click", logId);
</script>
<path id="leaf" class="st0" d="M328.1,143.1C300.8,57.1,474.3-32.6,572.3,33.6C503.6,89.8,472.7,218.1,328.1,143.1L328.1,143.1z"/>
<path id="apple-body" class="st1" d="M309.3,254.1c40.5,0,57.4-56.5,135-56.5S608,256,608,385.9S494.9,743.5,438.4,743.5
	s-92.2-30.1-129.1-30.1s-72.5,30.1-129.1,30.1S10.7,515.7,10.7,385.9s86.1-188.3,163.7-188.3S268.9,254.1,309.3,254.1L309.3,254.1z"
	/>
<path id="outline" class="st2" d="M309.3,258.2c14-58,18.7-194.7-35.3-240.7 M309.3,254.1c40.5,0,57.4-56.5,135-56.5
	S608,255.9,608,385.9S494.9,743.5,438.4,743.5s-92.2-30.1-129.1-30.1s-72.5,30.1-129.1,30.1S10.7,515.7,10.7,385.9
	s86.1-188.3,163.7-188.3S268.9,254.1,309.3,254.1L309.3,254.1z"/>
<path id="shine" class="st3" d="M104.9,281.1c48.6-51.3,97.4-36.4,110.7-11.4s-23.3,63.1-49.1,87.5s-56.5,65.7-83.4,64
	S47,342.3,104.9,281.1z"/>
</svg>
