<?xml version="1.0" encoding="utf-8"?>
<!-- Generator: Adobe Illustrator 27.5.0, SVG Export Plug-In . SVG Version: 6.00 Build 0)  -->
<svg version="1.1" id="barley" xmlns="http://www.w3.org/2000/svg" xmlns:xlink="http://www.w3.org/1999/xlink" x="0px" y="0px"
	 viewBox="0 0 800 800" style="enable-background:new 0 0 800 800;" xml:space="preserve">
<style type="text/css">
	.st0{fill:#FFDC64;}
	.st1{fill:#FFF082;}
	#barley:hover{
		transform:scale(1.02);
	}
	#barley:hover #leaf7 {
		fill: black;
	}
	#barley {
			transition: fill 0.3s;
			animation: scaleAnimation 2s infinite;
		}
</style>
<script>const barley = document.querySelector("#barley");

function logId() {
	console.log(this.id)
}

barley.addEventListener("click", logId);</script>
<g id="leaf8">
	<path class="st0" d="M503.8,485.1c3,3,5.8,6.2,8.5,9.4c-2.7,3.2-5.5,6.4-8.5,9.4c-57.4,57.4-150.5,57.4-207.9,0
		c-3-3-5.8-6.2-8.5-9.4c2.7-3.2,5.5-6.4,8.5-9.4C353.4,427.7,446.4,427.7,503.8,485.1z"/>
	<path class="st0" d="M617.2,352.8c3,3,5.9,6.2,8.5,9.4c-2.7,3.2-5.5,6.4-8.5,9.4c-52.2,52.2-136.8,52.2-189,0c-3-3-5.9-6.2-8.5-9.4
		c2.7-3.2,5.5-6.4,8.5-9.4C480.4,300.7,565,300.7,617.2,352.8z"/>
	<path class="st0" d="M721.1,230c3,3,5.8,6.2,8.5,9.4c-2.6,3.3-5.5,6.4-8.5,9.4c-47,47-123.1,47-170.1,0c-3-3-5.8-6.2-8.5-9.4
		c2.6-3.3,5.5-6.4,8.5-9.4C598,183.1,674.2,183.1,721.1,230z"/>
	<path class="st0" d="M390.5,617.4c3,3,5.8,6.2,8.5,9.4c-2.7,3.2-5.5,6.4-8.5,9.4c-62.6,62.6-164.1,62.6-226.7,0
		c-3-3-5.8-6.2-8.5-9.4c2.7-3.2,5.5-6.4,8.5-9.4C226.3,554.8,327.9,554.8,390.5,617.4z"/>
	<path class="st1" d="M787.5,20c0.1-2.5-0.1-4.8-0.2-7.3c-2.4-0.1-4.8-0.2-7.3-0.2c-67.4,1.7-123.5,57.8-125.2,125.2
		c-0.1,2.5,0.1,4.8,0.2,7.3c2.4,0.1,4.8,0.2,7.3,0.2C729.7,143.4,785.7,87.4,787.5,20z"/>
</g>
<g id="leaf7">
	<path class="st1" d="M314.9,296.2c-3-3-6.2-5.8-9.4-8.5c-3.2,2.7-6.4,5.5-9.4,8.5c-57.4,57.4-57.4,150.5,0,207.9
		c3,3,6.2,5.8,9.4,8.5c3.2-2.7,6.4-5.5,9.4-8.5C372.3,446.6,372.3,353.6,314.9,296.2z"/>
	<path class="st1" d="M447.2,182.8c-3-3-6.2-5.9-9.4-8.5c-3.2,2.7-6.4,5.5-9.4,8.5c-52.2,52.2-52.2,136.8,0,189c3,3,6.2,5.9,9.4,8.5
		c3.2-2.7,6.4-5.5,9.4-8.5C499.3,319.6,499.3,235,447.2,182.8z"/>
	<path class="st1" d="M570,78.9c-3-3-6.2-5.8-9.4-8.5c-3.3,2.6-6.4,5.5-9.4,8.5c-47,47-47,123.1,0,170.1c3,3,6.2,5.8,9.4,8.5
		c3.3-2.6,6.4-5.5,9.4-8.5C616.9,202,616.9,125.8,570,78.9z"/>
	<path class="st1" d="M182.6,409.5c-3-3-6.2-5.8-9.4-8.5c-3.2,2.7-6.4,5.5-9.4,8.5c-62.6,62.6-62.6,164.1,0,226.7
		c3,3,6.2,5.8,9.4,8.5c3.2-2.7,6.4-5.5,9.4-8.5C245.2,573.7,245.2,472.1,182.6,409.5z"/>
</g>
<path d="M740.6,211.7l-10,10c-0.2-0.2-0.4-0.4-0.6-0.6c-25.6-25.6-59.6-39.1-94.5-38.9l24.5-24.5c0.4,0,0.7,0,1.1,0c0.5,0,1,0,1.5,0
	c73.9-1.9,135.5-63.5,137.4-137.4c0.1-2.2,0-4.3-0.1-6.2c0-0.6-0.1-1.2-0.1-1.8c-0.2-6.6-5.5-11.9-12.1-12.1l-1.8-0.1
	c-1.9-0.1-4-0.2-6.2-0.1c-73.9,1.9-135.5,63.5-137.4,137.4c0,0.9,0,1.7,0,2.6l-24.7,24.7c0.2-34.3-12.7-68.6-38.8-94.6
	c-0.2-0.2-0.4-0.4-0.6-0.6l10-10c4.9-4.9,4.9-12.8,0-17.7c-4.9-4.9-12.8-4.9-17.7,0L542.2,70c-48.8,48.8-51.6,126.4-8.4,178.5
	l-35.2,35.2c1.7-39.5-12.5-79.6-42.6-109.8c-0.2-0.2-0.4-0.4-0.6-0.6l10-10c4.9-4.9,4.9-12.8,0-17.7s-12.8-4.9-17.7,0l-28.3,28.3
	c-54,54-56.8,140-8.5,197.4l-41,41c0.3-4,0.5-8.1,0.5-12.2c0-42.6-16.6-82.7-46.7-112.8c-0.2-0.2-0.4-0.4-0.6-0.6l10.1-10
	c4.9-4.9,4.9-12.8,0-17.7c-4.9-4.9-12.8-4.9-17.7,0l-28.3,28.3c-30.1,30.1-46.7,70.2-46.7,112.8c0,38.4,13.5,74.7,38.2,103.6
	l-37.5,37.5c0.6-6,1-12.1,1-18.2c0-46.2-18-89.6-50.6-122.2c-0.2-0.2-0.4-0.4-0.6-0.6l10-10c4.9-4.9,4.9-12.8,0-17.7
	c-4.9-4.9-12.8-4.9-17.7,0l-28.3,28.3c-32.7,32.6-50.6,76.1-50.6,122.2c0,42,14.9,81.7,42.1,113.1L3.7,778.6
	c-4.9,4.9-4.9,12.8,0,17.7c2.4,2.4,5.7,3.7,8.9,3.7s6.4-1.2,8.9-3.7L164,653.7c31.4,27.2,71.1,42.1,113.1,42.1
	c46.2,0,89.6-18,122.2-50.6l28.3-28.3c4.9-4.9,4.9-12.8,0-17.7c-4.9-4.9-12.8-4.9-17.7,0l-10,10c-0.2-0.2-0.4-0.4-0.6-0.6
	c-37.3-37.3-89.3-55-140.5-49.6l37.5-37.5c28.9,24.7,65.2,38.2,103.6,38.2c42.6,0,82.7-16.6,112.8-46.7l28.3-28.3
	c4.9-4.9,4.9-12.8,0-17.7c-4.9-4.9-12.8-4.9-17.7,0l-10,10c-0.2-0.2-0.4-0.4-0.6-0.6c-33.3-33.3-79.3-49.6-125-46.2l41-41
	c26.3,22.2,59.3,34.3,94.1,34.3c39,0,75.7-15.2,103.3-42.8l0,0l0,0l28.3-28.3c4.9-4.9,4.9-12.8,0-17.7c-4.9-4.9-12.8-4.9-17.7,0
	l-10,10c-0.2-0.2-0.4-0.4-0.6-0.6c-19.8-19.8-44.6-33.4-71.8-39.4c-12.5-2.8-25.3-3.8-37.9-3.3l35.1-35.1
	c24.5,20.3,54.5,30.4,84.6,30.4c34,0,68-12.9,93.9-38.8l0,0l0,0l28.3-28.3c4.9-4.9,4.9-12.8,0-17.7
	C753.5,206.8,745.5,206.8,740.6,211.7z M774.6,25.4c-4.3,56.3-50.7,102.7-107,107C672,76.1,718.4,29.7,774.6,25.4z M559.9,87.7
	c0.2-0.2,0.4-0.4,0.6-0.6c0.2,0.2,0.4,0.4,0.6,0.6c42,42,42,110.3,0,152.3c-0.2,0.2-0.4,0.4-0.6,0.6c-0.2-0.2-0.4-0.4-0.6-0.6
	C517.9,198.1,517.9,129.7,559.9,87.7z M437.1,191.6c0.2-0.2,0.4-0.4,0.6-0.6c0.2,0.2,0.4,0.4,0.6,0.6c47.2,47.2,47.2,124,0,171.2
	c-0.2,0.2-0.4,0.4-0.6,0.6c-0.2-0.2-0.4-0.4-0.6-0.6C389.9,315.7,389.9,238.8,437.1,191.6z M304.9,305c0.2-0.2,0.4-0.4,0.6-0.6
	c0.2,0.2,0.4,0.4,0.6,0.6c0,0,0,0,0,0c25.4,25.4,39.4,59.2,39.4,95.1c0,16.2-2.9,31.9-8.3,46.7c-0.1,0.1-0.1,0.3-0.2,0.4
	c-6.6,17.8-17.1,34.2-30.9,48c-0.2,0.2-0.4,0.4-0.6,0.6c-0.2-0.2-0.4-0.4-0.6-0.6c-25.4-25.4-39.4-59.2-39.4-95.1
	C265.5,364.2,279.5,330.4,304.9,305z M172.6,418.4c0.2-0.2,0.4-0.4,0.6-0.6c0.2,0.2,0.4,0.4,0.6,0.6c27.9,27.9,43.3,65,43.3,104.5
	c0,39.5-15.4,76.6-43.3,104.5c-0.2,0.2-0.4,0.4-0.6,0.6c-0.2-0.2-0.4-0.4-0.6-0.6c-27.9-27.9-43.3-65-43.3-104.5
	C129.3,483.4,144.7,446.3,172.6,418.4z M381.6,626.2c0.2,0.2,0.4,0.4,0.6,0.6c-0.2,0.2-0.4,0.4-0.6,0.6
	c-27.9,27.9-65,43.3-104.5,43.3c-30.7,0-60-9.3-84.6-26.6c15.3-15.5,27.2-33.4,35.6-52.8C281.5,572.6,341.5,586.1,381.6,626.2z
	 M495,494c0.2,0.2,0.4,0.4,0.6,0.6c-0.2,0.2-0.4,0.4-0.6,0.6c-25.4,25.4-59.2,39.4-95.1,39.4c-27.1,0-53-8-75-22.8
	c14.5-14.8,25.8-31.9,33.5-50.5C406.2,445.7,459.3,458.2,495,494z M608.4,361.7c0.2,0.2,0.4,0.4,0.6,0.6c-0.2,0.2-0.4,0.4-0.6,0.6
	c-22.9,22.9-53.3,35.5-85.6,35.5c-23.5,0-46.1-6.7-65.4-19.2c13.9-14.2,24.2-30.6,31.1-48C531.2,318.5,576.6,330,608.4,361.7z
	 M580.4,256.1c12.9-13.4,22.5-28.9,28.7-45.3c36.9-9.6,76,0.9,103.2,28.1c0.2,0.2,0.4,0.4,0.6,0.6c-0.2,0.2-0.4,0.4-0.6,0.6
	C676.6,275.8,621.8,281.1,580.4,256.1z"/>
</svg>
