<?xml version="1.0" encoding="utf-8"?>
<!-- Generator: Adobe Illustrator 27.5.0, SVG Export Plug-In . SVG Version: 6.00 Build 0)  -->
<svg version="1.1" id="pomegranate" xmlns="http://www.w3.org/2000/svg" xmlns:xlink="http://www.w3.org/1999/xlink" x="0px"
	 y="0px" viewBox="0 0 800 800" style="enable-background:new 0 0 800 800;" xml:space="preserve">
<style type="text/css">
	.st0{fill:#FFECB3;}
	.st1{fill:#FF1744;}
	.st2{fill:#FF5252;}
	.st3{fill:#D50000;}
	#pomegranate:hover{
		transform:scale(1.01);
	}
	#pomegranate:hover #main-pome 
	{
		fill: #8A39AB;
	}
</style>
<script>
const pomegranate = document.querySelector("#pomegranate");

function logId() {
	console.log(this.id)
}

pomegranate.addEventListener("click", logId);
</script>
<path id="pome-back" class="st0" d="M102.5,458.3c0,142.7,133.1,258.4,297.4,258.4s297.5-115.6,297.6-258.3c0,0,0-0.1,0-0.1
	c0-142.7-133.1-258.4-297.4-258.4c-164.3,0-297.5,115.6-297.5,258.3C102.5,458.3,102.5,458.3,102.5,458.3L102.5,458.3z"/>
<path id="main-pome" class="st1" d="M391.7,315.5c0-13.8-11.2-25-25-25h-1.3c1-3.3,1.2-7.2,0.5-10.8c-2.5-13.6-15.4-22.7-29-20.3
	c-0.3,0.2-0.5,0.2-0.8,0.2c-13.3,2.5-22.2,15-20.2,28.3c-5.9-12.2-20.3-17.5-32.7-12c-12.5,5.5-18.2,19.8-13,32.3
	c-8.7-10.3-24-12-34.7-3.7c-10.8,8.5-12.7,23.8-4.5,34.7c-11.1-8.2-26.8-5.9-35,5.2c-8.2,11.1-5.9,26.8,5.2,35
	c-12.8-4.5-27,2.3-31.7,15.2c-4.7,12.8,2,27,14.7,31.8c-13.5-0.4-25,10.3-25.7,24c-0.6,13.6,9.8,25.1,23.3,26
	c-13.3,3.7-21.1,17.5-17.4,30.8c3.6,12.8,16.4,20.5,29.4,17.7c-11.7,7.2-15.3,22.3-8.3,34.2c7,11.7,22.2,15.5,33.8,8.8
	c-9.5,10-9,25.9,1,35.3c10,9.5,25.9,9,35.3-1l0,0c-6,12-1.5,26.7,10.3,33.2c11.8,6.7,26.8,2.5,33.5-9.2c-3,13,4.8,26.3,17.8,29.8
	c2.2,0.7,4.3,0.9,6.5,0.9c13.6,0,24.8-10.9,25-24.5c2.2,1.7,4.5,3,7.2,3.8c13.2,4.5,27.3-2.5,31.8-15.5c4.5-13.2-2.5-27.3-15.7-31.7
	c-0.9-0.4-1.8-0.6-2.7-0.8c12.5-1.3,22.2-12,22.2-24.8c0-12.7-9.5-23.2-21.7-24.8c13.7-1.9,23.2-14.5,21.4-28.1
	c-1.5-11.1-10.2-19.8-21.2-21.3c13.7,1.7,26.2-7.9,27.9-21.6c1.7-13.7-7.9-26.2-21.6-27.9c-2.1-0.3-4.3-0.3-6.4,0
	c12.4-1.7,21.6-12.3,21.7-24.8c0-12.7-9.5-23.2-21.8-24.7c12.3-1.7,21.8-12.2,21.8-24.8s-9.5-23.2-21.8-24.8
	C382.3,338.8,391.7,328.1,391.7,315.5L391.7,315.5z M618.2,476.3c13.5-1,23.8-12.5,23.3-26c-0.7-13.8-12.2-24.5-25.9-24
	c12.9-4.7,19.5-19,14.9-31.8c-4.6-12.9-18.7-19.6-31.7-15.2c10.7-8.3,12.9-23.7,4.8-34.7c-8.2-11-23.5-13.3-34.5-5.7
	c8-10.8,6-26-4.7-34.5c-10.7-8.3-26-6.7-34.7,3.7c5.2-12.3-0.5-26.8-13-32.3c-12.3-5.5-26.8-0.2-32.7,12c2-13.3-6.9-25.9-20.2-28.3
	h-0.3c-0.2,0-0.3,0-0.6-0.2c-13.5-2.3-26.5,6.7-28.8,20.3c-0.7,3.8-0.5,7.5,0.5,11c-0.5-0.2-0.8-0.2-1.3-0.2c-13.8,0-25,11.2-25,25
	c0,12.8,9.5,23.3,21.8,24.8c-13.7,1.7-23.4,14.3-21.7,28c1.4,11.3,10.4,20.2,21.7,21.7c-12.3,1.5-21.8,12-21.8,24.7
	c0,12.7,9.3,23.2,21.7,24.8c-12.3,1.7-21.7,12-21.7,24.6c0,12.6,9.3,23.2,21.5,24.8c-12.4,1.7-21.5,12.3-21.5,24.8
	c0,12.7,9.3,23.2,21.7,24.7c-12.3,1.7-21.7,12.2-21.7,24.8c0,12.8,9.7,23.5,22.2,24.8c-0.9,0.2-1.8,0.5-2.7,0.8
	c-13,4.3-20.1,18.4-15.8,31.4c0,0.1,0.1,0.2,0.1,0.3c4.6,13,18.7,20,31.8,15.6c2.7-1,5-2.3,7.2-4c0.2,13.7,11.4,24.7,25.1,24.5
	c2.1,0,4.2-0.3,6.2-0.9c13.1-3.4,21.1-16.7,18-29.8c6.8,11.7,21.7,15.8,33.5,9.2c11.8-6.5,16.3-21.3,10.1-33.3c9.5,9.7,25,10,35,0.7
	c9.8-9.4,10.5-25,1.3-35c11.8,6.8,26.8,3,33.8-8.7c7.2-11.8,3.3-27-8.1-34.2c13.2,3.2,26.7-5,30-18.3S631.3,479.7,618.2,476.3
	L618.2,476.3z"/>
<path id="path111" class="st2" d="M433.3,150L400,66.7L366.7,150c0,0,0-16.7-66.7-50l16.7,100l83.3,16.7l83.3-16.7L500,100
	C433.3,133.3,433.3,150,433.3,150z M300,100l16.7,100l33.3,16.7C351.1,190.6,300,100,300,100L300,100z M500,100
	c0,0-51.1,90.6-50,116.7l33.3-16.7L500,100L500,100z M459.3,188.8l-9.3,27.9v4c132.4,20.2,233.3,119,233.3,237.7
	c0,113.7-92.4,209.8-216.7,234.9c-33.3,6.8-68.1-28.8-68.1-28.8s-31.9,35.5-65.3,28.8C209.1,668.1,116.7,572,116.7,458.3
	c0-118.7,100.9-217.4,233.3-237.7v-4l-13.6-27.1C192.1,215.1,83.3,325.4,83.3,458.3c0,151.9,141.8,275,316.7,275
	s316.7-123.1,316.7-275C716.7,324.1,605.8,212.9,459.3,188.8L459.3,188.8z"/>
<path id="seeds1" class="st3" d="M350,200c0,9.2,7.5,16.7,16.7,16.7c9.2,0,16.7-7.5,16.7-16.7c0,0,0,0,0,0c0-9.2-7.5-16.7-16.7-16.7
	C357.5,183.3,350,190.8,350,200C350,200,350,200,350,200z M383.3,200c0,9.2,7.5,16.7,16.7,16.7c9.2,0,16.7-7.5,16.7-16.7
	c0,0,0,0,0,0c0-9.2-7.5-16.7-16.7-16.7C390.8,183.3,383.3,190.8,383.3,200C383.3,200,383.3,200,383.3,200z M416.7,200
	c0,9.2,7.5,16.7,16.7,16.7c9.2,0,16.7-7.5,16.7-16.7s-7.5-16.7-16.7-16.7C424.1,183.3,416.7,190.8,416.7,200z M366.7,166.7
	c0,9.2,7.5,16.7,16.7,16.7s16.7-7.5,16.7-16.7c0,0,0,0,0,0c0-9.2-7.5-16.7-16.7-16.7S366.7,157.4,366.7,166.7
	C366.7,166.7,366.7,166.7,366.7,166.7z M400,166.7c0,9.2,7.5,16.7,16.7,16.7s16.7-7.5,16.7-16.7c0,0,0,0,0,0
	c0-9.2-7.5-16.7-16.7-16.7C407.5,150,400,157.4,400,166.7C400,166.7,400,166.7,400,166.7z M283.3,358.3c0,13.8,11.2,25,25,25
	s25-11.2,25-25s-11.2-25-25-25S283.3,344.5,283.3,358.3z M216.7,408.3c0,13.8,11.2,25,25,25s25-11.2,25-25c0-13.8-11.2-25-25-25
	S216.7,394.5,216.7,408.3z M283.3,458.3c0,13.8,11.2,25,25,25s25-11.2,25-25s-11.2-25-25-25S283.3,444.5,283.3,458.3z M283.3,558.3
	c0,13.8,11.2,25,25,25s25-11.2,25-25c0-13.8-11.2-25-25-25S283.3,544.5,283.3,558.3z M216.7,508.3c0,13.8,11.2,25,25,25
	s25-11.2,25-25s-11.2-25-25-25S216.7,494.5,216.7,508.3z M466.7,358.3c0,13.8,11.2,25,25,25s25-11.2,25-25s-11.2-25-25-25
	S466.7,344.5,466.7,358.3z M533.3,408.3c0,13.8,11.2,25,25,25c13.8,0,25-11.2,25-25c0-13.8-11.2-25-25-25
	C544.5,383.3,533.3,394.5,533.3,408.3z M466.7,458.3c0,13.8,11.2,25,25,25s25-11.2,25-25s-11.2-25-25-25S466.7,444.5,466.7,458.3z
	 M466.7,558.3c0,13.8,11.2,25,25,25s25-11.2,25-25c0-13.8-11.2-25-25-25S466.7,544.5,466.7,558.3z M533.3,508.3
	c0,13.8,11.2,25,25,25c13.8,0,25-11.2,25-25s-11.2-25-25-25C544.5,483.3,533.3,494.5,533.3,508.3z"/>
</svg>
