<?xml version="1.0" encoding="utf-8"?>
<!-- Generator: Adobe Illustrator 27.5.0, SVG Export Plug-In . SVG Version: 6.00 Build 0)  -->
<svg version="1.1" id="watermelon" xmlns="http://www.w3.org/2000/svg" xmlns:xlink="http://www.w3.org/1999/xlink" x="0px" y="0px"
	 viewBox="0 0 800 800" style="enable-background:new 0 0 800 800;" xml:space="preserve">
<style type="text/css">
	.st0{fill:#0F6D38;}
	.st1{fill:#BECAC3;}
	.st2{fill:#C9BC9E;}
	.st3{fill:#BB2D33;}
	.st4{fill:none;}
	.st5{fill:#399C56;}
	.st6{fill:#F2F9F3;}
	.st7{fill:#FDEFD1;}
	.st8{fill:#E95D63;}
	.st9{opacity:0.2;fill:#FFFFFF;enable-background:new    ;}
	.st10{opacity:0.3;fill:#FFFFFF;enable-background:new    ;}

	#watermelon:hover{
		transform:scale(1.01);
	}
	#watermelon:hover #melon-body{
		fill:red;
	}
</style>
<script>
const watermelon = document.querySelector("#watermelon");

function logId() {
	console.log(this.id)
}

watermelon.addEventListener("click", logId);
</script>
<g>
	<path class="st0" d="M37.8,384.4c0.6,0.7,1.2,1.3,1.9,1.9C39,385.8,38.4,385.1,37.8,384.4L37.8,384.4z"/>
	<path class="st0" d="M800,406c-19.9,19.8-41.1,38-63.5,54.6c-91.9,68-204,108-324.9,108c-86.2,0-167.9-20.3-241-56.6
		c-0.1,0-0.2-0.1-0.3-0.1c-54.4-27-104.1-62.9-147.2-105.8l17.5-18.3l0.2-0.2c-0.4-0.4-0.7-0.7-1.1-1.1c0.4,0.3,0.8,0.7,1.1,1.1
		c1.2,1.3,2.5,2.5,3.7,3.8c20.7,20.1,42.9,38.6,66.3,55.1c3.4,2.4,6.9,4.8,10.4,7.1c83.8,56.1,183.4,88.7,290.3,88.7
		c59.5,0,116.7-10.1,170.1-28.7c4.1-1.4,8.2-2.9,12.3-4.4c12.2-4.6,24.2-9.6,36-15.1h0c11.8-5.5,23.3-11.4,34.6-17.7
		c11.3-6.3,22.4-13.1,33.2-20.1c7.2-4.8,14.3-9.7,21.2-14.7c0,0,0,0,0,0c0.5-0.4,1-0.7,1.5-1.2c0,0,0,0,0.1,0
		c6.4-4.7,12.7-9.5,18.9-14.6c7.4-5.9,13.5-13,20.5-19.4c0,0,0.1,0,0.1-0.1c3.5-3.2,7-6.4,10.5-9.7c3.4-3.3,6.8-6.6,10.2-9.9
		L800,406z"/>
	<path class="st1" d="M742.1,346l38.8,40.6c-6.7,6.7-13.6,13.2-20.7,19.6c0,0-0.1,0.1-0.1,0.1c-0.1,0.1-0.2,0.2-0.4,0.3
		c-0.7,0.6-1.3,1.2-2,1.7c-0.8,0.7-1.5,1.3-2.2,2c-4.2,3.7-8.5,7.4-12.8,10.8c-0.1,0.1-0.3,0.2-0.4,0.4c-1.3,1.2-2.7,2.2-4,3.3
		c-6.7,5.4-13.6,10.6-20.5,15.8c0,0,0,0,0,0c-7,5-14.1,10-21.2,14.7c-10.8,7.1-21.9,13.8-33.2,20.1c-11.3,6.3-22.8,12.2-34.6,17.7h0
		c-11.8,5.5-23.8,10.5-36,15.1c-4.1,1.5-8.2,3-12.3,4.4c-53.5,18.6-110.7,28.7-170.1,28.7c-106.4,0-205.5-32.2-289-87.8
		c-3.5-2.3-6.9-4.7-10.4-7.1c-2.9-2.1-5.8-4.2-8.7-6.3c-20.7-15.1-40.4-31.7-58.9-49.7c-0.9-0.9-1.7-1.7-2.6-2.7
		c-0.4-0.3-0.8-0.7-1.1-1.1c-0.6-0.6-1.2-1.3-1.9-1.9c0.6,0.6,1.3,1.3,1.9,1.9l0.2-0.2l19.9-20.8l12-12.5l19.8-20.7
		c0.4,0.4,0.8,0.7,1.1,1c0.1,0.1,0.2,0.2,0.3,0.3c2.1,2.1,4.3,4.2,6.5,6.2c2.6,2.5,5.4,5,8,7.4c2.5,2.2,5,4.4,7.5,6.6
		c0.3,0.3,0.6,0.6,1,0.8c2,1.8,4,3.4,6.1,5.1c0.1,0.1,0.1,0.2,0.2,0.2c1,0.9,2.1,1.7,3.1,2.5c10.4,8.4,21,16.4,32,23.9
		c2.1,1.4,4.1,2.8,6.3,4.2c3.3,2.1,6.5,4.2,9.9,6.3c1.5,1,3,1.9,4.6,2.8c11.6,7,23.5,13.5,35.7,19.4c1.7,0.8,3.4,1.7,5.1,2.5
		c1.6,0.7,3.2,1.5,4.8,2.2c2.3,1.1,4.6,2.1,6.9,3.1c0.9,0.5,2,0.9,3,1.3c1.8,0.8,3.6,1.5,5.5,2.3c5.7,2.4,11.5,4.7,17.4,6.8
		c2.8,1,5.6,2.1,8.5,3c0.2,0.1,0.4,0.1,0.6,0.2c1.7,0.6,3.3,1.1,4.9,1.6c2.4,0.8,4.7,1.6,7,2.3c2.9,0.9,5.9,1.8,8.9,2.7
		c1.7,0.6,3.5,1.1,5.3,1.5c1.8,0.5,3.6,1,5.4,1.5c0.3,0.1,0.6,0.2,0.9,0.2c3.2,0.8,6.3,1.6,9.5,2.4c1.5,0.3,2.9,0.7,4.4,1
		c2.2,0.5,4.3,1,6.5,1.4c2.4,0.5,4.7,1,7.1,1.4c13.2,2.6,26.6,4.6,40.2,5.9c3.4,0.4,6.9,0.7,10.4,0.9c11.3,0.9,22.8,1.3,34.4,1.3
		s23-0.4,34.4-1.3c3.5-0.3,7-0.6,10.5-0.9c14.3-1.4,28.4-3.5,42.3-6.3c1.6-0.3,3.3-0.7,4.9-1c9.2-2,18.4-4.2,27.4-6.7
		c1.6-0.4,3.2-0.9,4.7-1.4c0.5-0.1,0.9-0.2,1.4-0.4c2.4-0.7,4.7-1.4,7-2.1c13.9-4.3,27.4-9.3,40.7-14.9c1.6-0.7,3.1-1.3,4.6-2
		c1.7-0.7,3.5-1.5,5.2-2.3c1.4-0.7,2.9-1.3,4.2-2c1.3-0.6,2.6-1.2,3.8-1.8c1.9-0.9,3.8-1.8,5.6-2.8c5.6-2.7,11.1-5.5,16.5-8.5
		c1-0.6,2.1-1.2,3.1-1.7c2.6-1.4,5.1-2.8,7.6-4.3c2.2-1.3,4.4-2.5,6.5-3.9c1.2-0.7,2.3-1.4,3.4-2.1c2.2-1.3,4.4-2.7,6.6-4.1
		c4.4-2.8,8.7-5.6,12.9-8.5c2.2-1.4,4.4-3,6.6-4.6c2.3-1.6,4.6-3.2,6.9-4.9c4-2.9,7.9-5.9,11.8-9c1.9-1.4,3.8-3,5.8-4.6
		c0.5-0.4,0.9-0.8,1.4-1.2c0.3-0.3,0.6-0.5,0.9-0.7c2.6-2.1,5.2-4.2,7.8-6.5c1.1-0.9,2.1-1.8,3.2-2.8c7.2-6.2,14.2-12.7,21-19.5
		L742.1,346L742.1,346z"/>
	<path class="st2" d="M742.3,345.7c-6.9,6.8-15.8,11.6-23,17.9C632.6,440,525.8,483.4,411.5,483.4c-123.6,0-240.9-48.8-330.8-137.6
		l12-12.5l65.6-68.6l1.2-1.3l22-23L411.5,0l318.8,333.2L742.3,345.7z"/>
	<path id="melon-body2" class="st3" d="M730.3,333.2c-4.7,4.1-15.5,11.4-23,17.9c-80.7,70.2-183,114.6-295.9,114.6
		c-123.3,0-235.5-50.4-318.8-132.5L388.6,17.9l23-17.9L730.3,333.2z"/>
	<path id="path-outline" class="st4" d="M607.8,334.6l6.2-6.5c-2.1-0.3-4.1-0.6-6.2-0.8V334.6z"/>
	<path id="path-green" class="st5" d="M777,423.9c-12.9,12.9-26.5,25.1-40.5,36.7c-95.9,78.8-216.8,125.9-348,125.9
		c-114.7,0-221.4-36-310.7-97.8c-23.3-16.1-45.3-34-66-53.6c-4-3.6-8-7.4-11.8-11.3l6.3-6.6l11.4-11.8v-0.1h0.1
		c1.1,1.2,2.4,2.5,3.7,3.7c2.6,2.6,5.3,5.1,8,7.4h0.1c2.8,2.9,5.6,5.5,8.5,8.1c39.5,35.5,83.9,64.9,132.1,87.1
		c0.1,0.1,0.2,0.1,0.3,0.2c66.6,30.9,140.3,48.1,217.9,48.1c59.4,0,116.7-10.1,170.2-28.7c4-1.4,8.2-2.9,12.2-4.3
		c6.2-2.3,12.2-4.8,18.2-7.2l17.9-8c11.8-5.5,23.3-11.4,34.6-17.7c11.4-6.3,22.4-13,33.3-20.1c7.1-4.8,14.3-9.7,21.2-14.8
		c7-5.2,13.9-10.3,20.6-15.7c0.8-0.6,1.7-1.3,2.5-2.2c0.5-0.3,1-0.7,1.4-1.1c0.1,0,0.1,0,0.1-0.1c2.4-1.9,4.8-3.7,7-5.7
		c4.8-4,9.5-8.3,14.2-12.6c0.3-0.2,0.6-0.5,0.9-0.8c5.6-5,11.1-10.2,16.4-15.6l0.8,0.8L777,423.9z"/>
	<path class="st6" d="M760.2,406.1c0,0-0.1,0.1-0.1,0.1c-0.8,0.7-1.6,1.4-2.4,2.1c-10,8.9-19.9,17.6-30.1,26.1c-2.3,2-4.6,3.9-7,5.7
		c0,0,0,0-0.1,0c-1.3,1.2-2.7,2.3-4,3.3c-6.7,5.4-13.6,10.6-20.5,15.8c0,0,0,0,0,0c-7,5-14.1,10-21.2,14.7
		c-10.8,7.1-21.9,13.8-33.2,20.1c-11.3,6.3-22.8,12.2-34.6,17.7h0c-11.8,5.5-23.8,10.5-36,15.1c-4.1,1.5-8.2,3-12.3,4.4
		C505.2,549.9,448,560,388.5,560c-77.6,0-151.4-17.2-218-48.1c-0.1,0-0.2-0.1-0.3-0.1C115.2,486.3,65,451.4,21.6,409.1
		c-1.2-1.3-2.5-2.5-3.7-3.8l19.8-20.7l0.2-0.2l0,0l19.9-20.8l12-12.5c0.6,0.6,1.2,1.3,1.9,1.9c0.1,0.1,0.3,0.3,0.4,0.4
		c1.8,1.8,3.7,3.6,5.6,5.4c5.3,5,10.8,9.9,16.3,14.6c0.1,0.1,0.2,0.1,0.3,0.2c1.9,1.7,3.9,3.3,5.9,5c0.1,0.1,0.3,0.2,0.4,0.3
		c1,0.9,2.1,1.7,3.1,2.5c12.3,10,25.1,19.4,38.3,28.1c3.3,2.1,6.5,4.2,9.9,6.3c1.5,1,3,1.9,4.6,2.8c11.6,7,23.5,13.5,35.7,19.4
		c1.7,0.8,3.4,1.7,5.1,2.5c1.6,0.8,3.2,1.5,4.8,2.2c2.3,1.1,4.6,2.1,6.9,3.1c2.3,1.1,4.7,2.1,7.1,3c2.8,1.2,5.7,2.4,8.5,3.5
		c3.4,1.4,6.8,2.7,10.3,3.9c2.8,1,5.6,2.1,8.5,3c4,1.4,8,2.7,12,3.9c2.9,0.9,5.8,1.8,8.7,2.7c4.1,1.2,8.2,2.3,12.3,3.4
		c3.2,0.8,6.3,1.6,9.5,2.4c3.6,0.8,7.3,1.7,10.9,2.4c2.4,0.5,4.7,1,7.1,1.4c3.3,0.7,6.6,1.3,9.9,1.8c2.9,0.5,5.8,1,8.6,1.4
		c7.2,1.1,14.4,2,21.6,2.7c3.4,0.4,6.9,0.7,10.4,0.9c3.8,0.3,7.6,0.6,11.4,0.7c3,0.2,6.1,0.3,9.1,0.4c4.6,0.1,9.2,0.2,13.9,0.2
		s9.2-0.1,13.8-0.2c1.2,0,2.3,0,3.4-0.1h0.6c1.7-0.1,3.4-0.1,5.1-0.3c3.8-0.1,7.6-0.4,11.4-0.7c3.5-0.3,7-0.6,10.5-0.9
		c8.1-0.8,16.1-1.8,24.1-3.1c1.6-0.2,3.2-0.5,4.7-0.8c6.2-1,12.3-2.1,18.4-3.5c3.9-0.8,7.8-1.7,11.6-2.6c1.6-0.4,3.2-0.7,4.7-1.2
		c3.4-0.9,6.8-1.8,10.2-2.7c5.2-1.4,10.4-2.9,15.5-4.6c2.3-0.7,4.6-1.4,6.9-2.2c11-3.6,21.8-7.7,32.3-12.2c1.6-0.7,3.1-1.3,4.6-2
		c1.7-0.7,3.5-1.5,5.2-2.3c1.4-0.7,2.9-1.3,4.2-2c2.4-1.1,4.7-2.1,7-3.3c2.9-1.4,5.8-2.8,8.6-4.3c3.5-1.8,7-3.6,10.4-5.5
		c1-0.6,2.1-1.2,3.1-1.7c2.5-1.3,4.9-2.7,7.3-4.1c2.1-1.2,4.3-2.5,6.4-3.8c1.3-0.7,2.6-1.5,3.9-2.3c2.2-1.3,4.4-2.7,6.6-4.1
		c2.8-1.8,5.5-3.5,8.2-5.3c1.6-1.1,3.2-2.1,4.7-3.2c2.2-1.4,4.4-3,6.6-4.6c2.3-1.6,4.6-3.2,6.9-4.9c4-2.9,7.9-5.9,11.8-9
		c2.4-1.8,4.8-3.8,7.2-5.7c0.3-0.3,0.6-0.5,0.9-0.7c2.6-2.1,5.2-4.2,7.8-6.5c8.3-7,16.3-14.4,25-21.4c0,0,0.1,0,0.1-0.1L760.2,406.1
		z"/>
	<path class="st7" d="M719.3,363.6c-89.9,88.9-207.1,137.7-330.8,137.7c-118.3,0-230.7-44.7-318.9-126.4c-3.3-3.1-6.6-6.2-9.9-9.4
		l-1.9-1.9l11.9-12.4l66.9-70l20.7-21.6L388.5,17.9l3,3.1l8.4,8.8l307.5,321.3l0.7,0.7l0.1,0.2L719.3,363.6z"/>
	<path id="melon-body" class="st8" d="M707.3,351.1c-3.7,3.6-7.4,7.1-11.2,10.8c-0.5,0.3-0.9,0.7-1.3,1.1
		c-3.8,3.5-7.8,6.9-11.7,10.3c-2.6,2.2-5.2,4.3-7.8,6.5c-2.7,2.2-5.4,4.3-8.1,6.5c-3.2,2.5-6.5,5.1-9.8,7.4
		c-5.8,4.3-11.8,8.6-17.8,12.6c-15.5,10.5-31.6,20-48.3,28.4c-5.1,2.7-10.2,5.2-15.5,7.5c-4.7,2.2-9.3,4.2-14.1,6.2
		c-4.3,1.9-8.8,3.6-13.2,5.3c-2.1,0.9-4.1,1.7-6.2,2.4c-4.2,1.7-8.6,3.1-12.9,4.5c-13.1,4.4-26.6,8.2-40.2,11.3
		c-3.5,0.9-7.1,1.7-10.6,2.4c-21.9,4.5-44.4,7.4-67.2,8.6c-1.9,0.1-3.7,0.2-5.7,0.3c0,0,0,0-0.1,0c-1,0-2.2,0.1-3.4,0.1
		c-4.7,0.1-9.1,0.2-13.8,0.2s-9.2-0.1-13.8-0.2c-26.1-0.8-51.6-3.8-76.4-9c-3.6-0.7-7.2-1.6-10.9-2.4c-8.5-2-16.9-4.1-25.2-6.7
		c-2.5-0.6-4.9-1.4-7.2-2.2c-1.9-0.5-3.7-1.1-5.6-1.8c-9-2.9-17.9-6.1-26.7-9.7c-2.4-0.8-4.7-1.9-7-2.8
		c-10.6-4.4-21.1-9.3-31.4-14.7c-3.2-1.7-6.4-3.3-9.6-5.1c-32-17.4-61.9-38.6-89.1-63c-1.3-1.2-2.8-2.5-4.1-3.7
		c-3.3-3.1-6.6-6.2-9.8-9.4c-0.6-0.6-1.3-1.2-2-1.9l66.9-70l20.7-21.6L388.5,17.9l3,3.1l8.4,8.8L707.3,351.1z"/>
	<path class="st9" d="M294.4,223.8c-6.2-0.1-12.7,12.4-12.9,23.5c-0.2,11.1,4.2,20.2,12.2,20.3c8,0.1,12.7-8.8,12.8-19.9
		C306.7,236.6,300.6,223.9,294.4,223.8z M293.4,224.9c-5.6,0-11.2,11.4-11.2,21.5s4,18.2,11.2,18.2c7.2,0,11.2-8.1,11.2-18.2
		C304.6,236.3,299,224.9,293.4,224.9z M290.6,233.1c3.3,0,6,2.8,6,6.2s-2.7,6.2-6,6.2s-6-2.8-6-6.2S287.3,233.1,290.6,233.1z
		 M400.1,135.2c-6-0.2-12.5,11.8-12.9,22.6c-0.3,10.8,3.8,19.7,11.5,19.9c7.8,0.3,12.4-8.3,12.7-19.1
		C411.8,147.8,406.1,135.4,400.1,135.2z M399.1,136.2c-5.4-0.1-11,10.9-11.2,20.6c-0.2,9.7,3.6,17.7,10.6,17.8
		c6.9,0.1,11-7.7,11.1-17.4C409.8,147.4,404.5,136.3,399.1,136.2z M402,150.3c-0.1,3.3-2.7,6-5.9,5.9c-3.2-0.1-5.7-2.8-5.7-6.2
		c0.1-3.3,2.7-6,5.9-5.9C399.5,144.2,402,146.9,402,150.3z M388.9,340c-6.7-0.1-13.7,13.4-13.9,25.4c-0.2,12,4.5,21.8,13.2,21.9
		c8.7,0.1,13.7-9.5,13.8-21.5C402.3,353.9,395.7,340.1,388.9,340z M387.9,341.2c-6,0-12.1,12.3-12.1,23.2c0,10.8,4.4,19.6,12.1,19.6
		c7.7,0,12.1-8.8,12.1-19.6C400,353.5,393.9,341.2,387.9,341.2z M384.8,350.1c3.6,0,6.4,3,6.4,6.7c0,3.7-2.9,6.7-6.4,6.7
		c-3.6,0-6.4-3-6.4-6.7C378.4,353.1,381.3,350.1,384.8,350.1z M573.9,329c-6.7-0.1-13.7,13.4-13.9,25.4c-0.2,12,4.5,21.8,13.2,21.9
		c8.7,0.1,13.7-9.5,13.8-21.5C587.2,342.9,580.6,329.1,573.9,329z M572.9,330.2c-6,0-12.1,12.3-12.1,23.2s4.4,19.6,12.1,19.6
		c7.7,0,12.1-8.8,12.1-19.6C584.9,342.5,578.9,330.2,572.9,330.2z M569.8,339.1c3.6,0,6.4,3,6.4,6.7s-2.9,6.7-6.4,6.7
		s-6.4-3-6.4-6.7S566.3,339.1,569.8,339.1z M200.5,304.5c-6.5-0.1-13.3,13-13.5,24.6c-0.2,11.6,4.4,21.1,12.8,21.2
		c8.4,0.1,13.2-9.2,13.4-20.8C213.4,317.9,207,304.6,200.5,304.5z M199.5,305.5c-5.8,0-11.7,11.9-11.7,22.4s4.2,19,11.7,19
		c7.5,0,11.7-8.5,11.7-19S205.3,305.5,199.5,305.5z M196.5,314.2c3.4,0,6.2,2.9,6.2,6.5s-2.8,6.5-6.2,6.5s-6.2-2.9-6.2-6.5
		S193.1,314.2,196.5,314.2z M471.8,242.7c-6.3-0.1-12.8,11.8-13,22.3c-0.2,10.5,4.2,19.1,12.3,19.3s12.7-8.3,12.9-18.9
		C484.2,254.9,478.1,242.8,471.8,242.7z M470.9,243.7c-5.6,0-11.3,10.8-11.3,20.3c0,9.5,4.1,17.2,11.3,17.2s11.3-7.7,11.3-17.2
		C482.1,254.5,476.5,243.7,470.9,243.7z M468,251.5c3.3,0,6,2.6,6,5.9c0,3.3-2.7,5.9-6,5.9c-3.3,0-6-2.6-6-5.9
		C462,254.2,464.7,251.5,468,251.5z"/>
	<path class="st10" d="M411.5,0.1V0L396,12l-7.4,5.9h-0.1L157.2,259.6l-20.7,21.6l-79,82.5l-19.8,20.8h-0.1l-19.8,20.9v0.1l-0.1-0.1
		L6.4,417.3L0,423.9c3.8,3.9,7.8,7.6,11.8,11.4l0.1-0.1l6.1-6.3l11.1-11.6v-0.1l0.5-0.6h0.1l2.1-2.2L49.3,396l0.2-0.1l20.1-21
		L80.9,363l0.6-0.6l7.9-8.3l11.8-12.3l0.1-0.1l46.2-48.3l0.3-0.3l2.4-2.5L399.8,29.8h0.1l7.8-6.1l15.1-11.8L411.5,0.1z"/>
</g>
</svg>
